<svg width="800" height="600" viewBox="0 0 800 600" fill="none" xmlns="http://www.w3.org/2000/svg">
  <!-- Background -->
  <rect width="800" height="600" fill="#f8fafc"/>
  
  <!-- Building -->
  <rect x="150" y="200" width="500" height="300" fill="#e2e8f0" stroke="#94a3b8" stroke-width="2"/>
  
  <!-- Building details -->
  <rect x="170" y="220" width="80" height="60" fill="#3b82f6" stroke="#1e40af"/>
  <text x="210" y="250" text-anchor="middle" fill="white" font-family="Arial" font-size="12" font-weight="bold">AWS</text>
  <text x="210" y="265" text-anchor="middle" fill="white" font-family="Arial" font-size="8">TRAINING</text>
  
  <!-- Windows -->
  <rect x="300" y="240" width="40" height="40" fill="#60a5fa" opacity="0.7"/>
  <rect x="360" y="240" width="40" height="40" fill="#60a5fa" opacity="0.7"/>
  <rect x="420" y="240" width="40" height="40" fill="#60a5fa" opacity="0.7"/>
  <rect x="480" y="240" width="40" height="40" fill="#60a5fa" opacity="0.7"/>
  
  <rect x="300" y="300" width="40" height="40" fill="#60a5fa" opacity="0.7"/>
  <rect x="360" y="300" width="40" height="40" fill="#60a5fa" opacity="0.7"/>
  <rect x="420" y="300" width="40" height="40" fill="#60a5fa" opacity="0.7"/>
  <rect x="480" y="300" width="40" height="40" fill="#60a5fa" opacity="0.7"/>
  
  <!-- Entrance -->
  <rect x="550" y="380" width="80" height="120" fill="#1e40af"/>
  <rect x="570" y="400" width="40" height="80" fill="#3b82f6"/>
  <circle cx="600" cy="440" r="3" fill="#fbbf24"/>
  
  <!-- Ground -->
  <rect x="0" y="500" width="800" height="100" fill="#22c55e" opacity="0.3"/>
  
  <!-- Trees -->
  <rect x="80" y="450" width="20" height="50" fill="#92400e"/>
  <circle cx="90" cy="440" r="25" fill="#22c55e"/>
  
  <rect x="700" y="450" width="20" height="50" fill="#92400e"/>
  <circle cx="710" cy="440" r="25" fill="#22c55e"/>
  
  <!-- Sign -->
  <rect x="50" y="380" width="200" height="80" fill="#ffffff" stroke="#94a3b8" stroke-width="2"/>
  <text x="150" y="405" text-anchor="middle" fill="#1e40af" font-family="Arial" font-size="14" font-weight="bold">AWS Devops Training Acadamy</text>
  <text x="150" y="425" text-anchor="middle" fill="#1e40af" font-family="Arial" font-size="12">Hyderabad</text>
  <text x="150" y="445" text-anchor="middle" fill="#059669" font-family="Arial" font-size="10">100% Placement</text>
  
  <!-- Title -->
  <text x="400" y="50" text-anchor="middle" fill="#1e40af" font-family="Arial" font-size="32" font-weight="bold">AWS Devops Training Acadamy</text>
  <text x="400" y="80" text-anchor="middle" fill="#475569" font-family="Arial" font-size="18">Ameerpet, Hyderabad</text>
  
  <!-- Features -->
  <text x="400" y="120" text-anchor="middle" fill="#059669" font-family="Arial" font-size="14">Cloud Computing • DevOps Engineering • Data Engineering</text>
</svg>
